<?xml version="1.0" standalone="no"?>
<!DOCTYPE svg PUBLIC "-//W3C//DTD SVG 20010904//EN"
 "http://www.w3.org/TR/2001/REC-SVG-20010904/DTD/svg10.dtd">
<svg version="1.0" xmlns="http://www.w3.org/2000/svg"
 width="410.000000pt" height="410.000000pt" viewBox="0 0 410.000000 410.000000"
 preserveAspectRatio="xMidYMid meet">
<metadata>
Created by potrace 1.11, written by Peter Selinger 2001-2013
</metadata>
<g transform="translate(0.000000,410.000000) scale(0.100000,-0.100000)"
fill="#000000" stroke="none">
<path d="M2726 3121 c-4 -6 -10 -10 -14 -8 -4 2 -28 -18 -53 -44 -26 -27 -44
-49 -41 -49 2 0 -7 -9 -20 -20 -16 -12 -48 -22 -84 -25 -33 -4 -72 -8 -89 -10
-50 -6 -294 -7 -304 -1 -5 4 -12 2 -16 -3 -3 -7 -15 -7 -30 -1 -16 6 -27 6
-31 -1 -3 -6 -10 -6 -17 -1 -7 5 -22 6 -35 3 -31 -8 -337 9 -337 19 0 2 -17 5
-65 14 -19 3 -44 7 -55 10 -92 18 -155 25 -155 16 0 -4 -6 -7 -12 -7 -30 -2
-135 -24 -156 -33 -16 -7 -22 -6 -22 3 0 7 -3 8 -8 2 -6 -9 -21 -13 -72 -19
-8 -2 -28 -8 -43 -14 -16 -7 -33 -10 -38 -6 -5 3 -9 1 -9 -4 0 -5 -12 -15 -28
-23 -15 -7 -48 -28 -74 -46 -26 -18 -50 -33 -53 -33 -6 0 -67 -42 -75 -51 -3
-4 -16 -10 -29 -14 -29 -9 -91 -72 -91 -91 0 -8 -5 -14 -11 -14 -5 0 -7 -4 -4
-10 3 -5 2 -10 -3 -10 -5 0 -15 -13 -22 -30 -7 -16 -16 -30 -20 -30 -4 0 -13
-13 -20 -30 -7 -16 -16 -30 -21 -30 -5 0 -9 -4 -9 -9 0 -14 -81 -141 -90 -141
-10 0 2 -476 13 -486 3 -4 2 -15 -3 -25 -6 -11 -6 -20 -1 -23 5 -4 8 -14 7
-24 -2 -9 3 -31 10 -48 7 -17 10 -34 7 -38 -4 -3 -1 -6 5 -6 6 0 18 -24 27
-52 10 -29 22 -58 29 -63 25 -22 17 -70 -15 -80 -10 -4 -17 -11 -14 -16 4 -5
1 -9 -5 -9 -18 0 -99 -87 -106 -114 -3 -14 -10 -26 -15 -26 -5 0 -8 -3 -7 -7
3 -13 -36 -93 -45 -93 -4 0 -5 -4 -2 -10 3 -5 1 -10 -5 -10 -6 0 -9 -4 -5 -9
3 -5 -1 -15 -8 -23 -8 -7 -12 -19 -9 -26 2 -7 0 -20 -4 -30 -4 -9 -6 -20 -6
-24 1 -5 -2 -8 -7 -8 -10 0 -81 -105 -81 -120 0 -10 -20 -50 -30 -60 -8 -8 -6
-79 2 -74 3 2 14 -3 22 -12 9 -8 16 -13 16 -10 0 3 19 -2 43 -10 23 -9 62 -17
87 -18 25 -1 51 -6 58 -10 7 -4 12 -2 12 5 0 8 4 8 13 2 11 -10 127 -18 127
-9 0 2 -17 22 -38 44 -80 88 -81 89 -66 110 7 11 10 22 7 26 -3 3 -1 6 5 6 7
0 12 8 12 18 0 10 7 27 15 38 8 12 11 24 8 28 -3 3 -1 6 5 6 7 0 11 3 10 8 -1
4 7 27 19 52 52 110 62 134 58 141 -3 4 2 10 11 13 8 3 13 10 10 15 -3 5 6 21
19 35 14 15 25 24 25 21 0 -4 6 0 14 7 26 26 90 73 95 71 2 -1 6 -8 7 -15 1
-7 12 -42 24 -78 22 -67 26 -80 29 -92 1 -4 8 -25 16 -47 7 -22 11 -42 8 -45
-4 -3 -1 -6 5 -6 7 0 12 -10 12 -23 0 -13 3 -27 7 -31 12 -12 31 -76 24 -81
-7 -4 -7 -114 -1 -140 1 -5 1 -14 0 -20 -4 -16 -6 -74 -2 -70 2 2 17 -1 33 -5
18 -5 29 -5 29 1 0 6 8 5 20 -1 14 -8 20 -8 20 0 0 8 6 8 20 0 14 -8 20 -8 20
0 0 8 6 8 20 0 11 -6 20 -7 20 -3 0 4 25 6 55 5 31 -2 67 -1 81 2 l26 7 -39
34 c-62 55 -74 68 -66 74 12 9 11 51 -1 51 -6 0 -4 5 4 10 8 5 11 10 5 10 -5
0 -10 11 -10 25 0 14 4 25 8 25 4 0 3 9 -3 20 -6 11 -7 20 -2 20 10 0 9 30 -2
48 -4 7 -2 12 4 12 6 0 8 5 4 12 -11 18 -12 48 -2 48 5 0 4 9 -2 20 -6 11 -7
20 -2 20 10 0 9 30 -2 48 -4 7 -2 12 6 12 8 0 9 3 3 8 -12 9 -15 52 -3 52 5 0
4 9 -2 20 -6 12 -7 20 -1 20 5 0 7 9 4 20 -3 11 0 20 6 20 6 0 11 7 11 15 0 8
4 15 9 15 5 0 12 8 15 18 3 9 16 29 29 43 l22 27 300 0 c188 0 310 4 328 11
15 6 27 8 27 5 0 -4 7 -1 15 6 8 7 15 9 15 6 0 -4 10 -1 23 6 12 6 28 13 36
14 8 2 52 15 98 29 46 15 85 26 87 24 9 -14 21 -109 13 -109 -6 0 -5 -5 1 -12
5 -7 11 -29 13 -48 2 -19 5 -39 7 -44 6 -11 13 -77 15 -138 1 -27 5 -48 9 -48
3 0 5 -8 3 -18 -2 -9 -4 -17 -5 -17 -8 0 -5 -53 4 -64 8 -11 8 -13 -1 -7 -9 5
-13 -1 -13 -23 0 -16 -5 -33 -10 -36 -6 -4 -8 -9 -6 -13 2 -4 0 -27 -5 -52 -5
-25 -12 -63 -15 -85 -3 -22 -15 -55 -26 -72 -11 -18 -16 -33 -11 -33 4 0 0 -5
-9 -11 -10 -5 -18 -17 -18 -24 0 -8 -5 -15 -11 -15 -5 0 -7 -4 -4 -10 8 -12
385 -14 385 -2 0 5 -9 20 -21 33 -11 13 -29 34 -40 47 -10 12 -16 22 -12 22 4
0 -2 7 -14 15 -19 13 -21 19 -12 43 12 30 20 61 21 80 1 6 4 12 8 12 4 0 7 7
8 15 1 8 3 22 4 30 1 8 5 15 9 15 5 0 6 7 3 15 -4 8 -1 15 7 15 7 0 10 3 6 6
-3 4 0 22 8 41 8 19 14 37 13 41 -3 12 26 97 35 103 5 3 8 10 8 15 -2 22 13
80 24 94 7 8 11 25 10 38 -1 12 2 22 7 22 4 0 8 9 8 20 0 27 16 25 46 -5 14
-14 27 -25 29 -25 3 0 13 -8 23 -17 10 -10 40 -36 67 -58 26 -22 54 -45 60
-52 7 -7 15 -9 19 -6 3 4 6 -1 6 -10 0 -9 7 -17 15 -17 8 0 19 -9 25 -20 6
-11 15 -20 20 -20 6 0 23 -11 38 -24 15 -14 40 -35 55 -49 15 -13 29 -33 30
-45 1 -12 4 -22 8 -22 4 0 6 -8 4 -17 -1 -10 6 -33 16 -50 12 -23 14 -33 6
-33 -8 -1 -7 -5 3 -13 8 -7 16 -21 17 -32 2 -30 8 -48 19 -68 8 -14 6 -28 -7
-54 -10 -20 -16 -40 -13 -44 3 -5 1 -9 -4 -9 -10 0 -32 -44 -32 -65 0 -12 18
-14 95 -12 56 1 97 -2 99 -8 3 -5 5 -4 5 3 1 7 5 11 9 8 10 -6 144 23 156 34
5 5 -12 29 -37 55 -25 25 -49 56 -53 68 -10 30 -11 87 -2 93 4 3 4 15 -1 27
-4 12 -7 43 -6 69 2 28 -2 48 -8 48 -6 0 -8 3 -4 6 3 3 -3 21 -14 40 -10 19
-19 41 -19 50 0 8 -7 17 -15 20 -8 4 -13 10 -10 14 3 5 1 11 -5 15 -5 3 -10
13 -10 21 0 8 -11 31 -23 52 -13 20 -22 43 -20 50 3 6 0 12 -5 12 -9 0 -25 37
-23 53 1 4 -3 7 -9 7 -6 0 -9 3 -8 8 1 4 -24 60 -55 125 -31 65 -57 123 -57
128 0 6 -7 17 -16 26 -8 9 -13 22 -10 29 3 8 0 14 -7 14 -8 0 -12 16 -11 48 0
26 -5 53 -10 61 -9 12 -8 13 4 6 12 -7 13 -6 3 6 -13 16 -12 36 0 57 5 6 4 12
-2 12 -11 0 -5 43 9 70 5 10 6 20 3 24 -3 3 -2 6 4 6 9 0 26 54 20 64 -1 2 6
13 16 23 9 11 15 22 12 25 -10 9 17 68 31 68 8 0 14 -3 14 -7 0 -5 11 -13 24
-19 26 -12 46 -2 46 23 0 7 4 13 9 13 5 0 14 14 20 30 5 17 15 30 20 30 6 0
11 3 10 8 -2 14 13 52 22 52 16 0 220 -197 314 -304 86 -97 95 -113 85 -147
-5 -16 -5 -31 -2 -33 9 -5 7 -620 -2 -701 -4 -33 -8 -72 -10 -86 -2 -14 -7
-32 -11 -39 -6 -9 -4 -11 4 -5 10 5 11 3 4 -11 -5 -11 -8 -29 -7 -42 0 -12 -4
-22 -10 -22 -7 0 -7 -3 1 -8 9 -5 10 -18 5 -38 -4 -16 -7 -58 -7 -94 l0 -64
42 -2 c23 -1 46 2 52 5 6 4 12 37 15 73 2 37 7 71 10 77 3 5 1 11 -5 13 -7 2
-7 12 0 31 6 15 7 27 2 27 -9 0 -9 17 0 35 2 6 4 29 4 53 0 23 4 42 9 42 5 0
6 3 3 7 -4 3 -2 12 3 18 9 10 17 46 22 93 1 6 5 12 10 12 4 0 7 3 6 8 -2 8 8
51 25 107 7 22 13 43 13 48 1 4 2 8 4 10 1 1 3 10 6 20 2 9 6 25 8 35 3 9 5
18 6 20 2 1 4 7 5 12 1 6 3 11 5 13 1 1 3 9 5 17 2 8 9 33 15 55 6 22 12 46
12 53 1 6 4 12 7 12 3 0 6 16 6 35 0 19 -2 35 -5 35 -11 0 -3 186 9 209 8 14
9 21 2 17 -6 -4 -12 -4 -12 1 -1 4 -3 17 -5 28 -8 52 -11 105 -4 105 4 0 7 7
7 15 0 8 -5 11 -10 8 -6 -4 -8 3 -5 15 4 13 1 22 -5 22 -8 0 -7 4 1 12 9 9 8
16 -5 30 -9 10 -13 18 -8 18 4 0 2 7 -5 15 -7 8 -9 15 -4 15 5 0 4 4 -3 8 -6
4 -13 19 -16 32 -2 14 -11 42 -20 64 -9 21 -17 44 -17 52 0 7 -4 15 -8 18 -4
3 -14 28 -22 55 -7 28 -17 51 -21 51 -5 0 -6 7 -3 15 4 8 1 15 -6 15 -6 0 -8
5 -5 10 3 6 2 10 -4 10 -5 0 -8 8 -6 18 1 9 -3 27 -11 39 -8 12 -16 30 -18 40
-9 39 -19 63 -26 63 -5 0 -11 14 -15 31 -4 17 -13 33 -21 36 -8 3 -12 9 -9 13
3 5 1 11 -5 15 -5 3 -10 15 -10 26 0 10 -4 19 -10 19 -5 0 -14 10 -21 21 -8
15 -8 19 0 15 18 -12 13 -1 -16 33 -25 28 -35 31 -93 35 -36 3 -65 5 -65 6 0
1 -29 4 -65 6 -67 5 -125 11 -125 14 0 1 -16 3 -35 6 -43 6 -61 9 -80 17 -8 3
-41 8 -73 11 -31 3 -61 7 -66 10 -4 3 -23 8 -42 10 -19 3 -54 8 -79 11 -25 4
-49 8 -55 9 -5 0 -13 5 -16 10 -4 4 -10 3 -13 -3z"/>
</g>
</svg>
